<svg xmlns="http://www.w3.org/2000/svg" width="30" height="40" viewBox="0 0 30 40"><g fill="none" fill-rule="evenodd" stroke="#000" stroke-width="1.5"><rect width="28.5" height="38.5" x=".75" y=".75" rx="3.25"/><circle cx="15" cy="15" r="8.25"/><path d="M13 7C13 7 12 11 12 15 12 19 13 23 13 23M17 7C17 7 18 11 18 15 18 19 17 23 17 23"/><path d="M7 13C7 13 11 12 15 12 19 12 23 13 23 13M7 17C7 17 11 18 15 18 19 18 23 17 23 17"/><line x1="8" x2="22" y1="29.5" y2="29.5" stroke-linecap="round"/><line x1="11" x2="19" y1="33.5" y2="33.5" stroke-linecap="round"/></g></svg>