<svg xmlns="http://www.w3.org/2000/svg" width="36" height="36" viewBox="0 0 36 36"><g fill-rule="evenodd"><path fill-rule="nonzero" d="M13.6 0C6.02843 0 0 6.26811 0 15.2268 0 19.6724 1.47791 24.8054 3.86164 28.8391 6.22002 32.8299 9.62884 36 13.6 36 14.0418 36 14.4 35.6392 14.4 35.194 14.4 34.7489 14.0418 34.3881 13.6 34.3881 10.5019 34.3881 7.51073 31.863 5.23643 28.0145 2.98746 24.2088 1.6 19.3582 1.6 15.2268 1.6 7.03136 7.03309 1.61194 13.6 1.61194 18.7071 1.61194 23.0891 4.87203 24.8168 10.1308 24.9556 10.5533 25.4082 10.7825 25.8277 10.6426 26.2471 10.5028 26.4746 10.0468 26.3358 9.62423 24.4062 3.75106 19.4434 0 13.6 0ZM25.3333 25.5224C25.9224 25.5224 26.4 25.0413 26.4 24.4478 26.4 23.8543 25.9224 23.3731 25.3333 23.3731 24.7442 23.3731 24.2667 23.8543 24.2667 24.4478 24.2667 25.0413 24.7442 25.5224 25.3333 25.5224Z"/><path d="M25.3333,29.8209 C28.2789,29.8209 30.6667,27.4153 30.6667,24.4478 C30.6667,21.4803 28.2789,19.0746 25.3333,19.0746 C22.3878,19.0746 20,21.4803 20,24.4478 C20,27.4153 22.3878,29.8209 25.3333,29.8209 Z M25.3333,28.209 C27.3952,28.209 29.0667,26.525 29.0667,24.4478 C29.0667,22.3705 27.3952,20.6866 25.3333,20.6866 C23.2715,20.6866 21.6,22.3705 21.6,24.4478 C21.6,26.525 23.2715,28.209 25.3333,28.209 Z"/><path d="M14.6667,24.0179 C14.6667,20.4068 14.6667,18.6013 15.3642,17.222 C15.9778,16.0088 16.9569,15.0224 18.1611,14.4043 C19.5302,13.7015 21.3223,13.7015 24.9067,13.7015 L25.76,13.7015 C29.3443,13.7015 31.1365,13.7015 32.5055,14.4043 C33.7098,15.0224 34.6889,16.0088 35.3024,17.222 C36,18.6013 36,20.4068 36,24.0179 L36,24.8776 C36,28.4887 36,30.2942 35.3024,31.6735 C34.6889,32.8867 33.7098,33.8731 32.5055,34.4913 C31.1365,35.194 29.3443,35.194 25.76,35.194 L24.9067,35.194 C21.3223,35.194 19.5302,35.194 18.1611,34.4913 C16.9569,33.8731 15.9778,32.8867 15.3642,31.6735 C14.6667,30.2942 14.6667,28.4887 14.6667,24.8776 L14.6667,24.0179 Z M24.9067,15.3134 L25.76,15.3134 C27.5786,15.3134 28.8463,15.3147 29.8332,15.3959 C30.8015,15.4756 31.3578,15.6242 31.7792,15.8405 C32.6823,16.3041 33.4166,17.0439 33.8768,17.9538 C34.0915,18.3784 34.239,18.9388 34.3181,19.9143 C34.3988,20.9086 34.4,22.1858 34.4,24.0179 L34.4,24.8776 C34.4,26.7098 34.3988,27.9869 34.3181,28.9812 C34.239,29.9567 34.0915,30.5172 33.8768,30.9417 C33.4166,31.8516 32.6823,32.5914 31.7792,33.055 C31.3578,33.2713 30.8015,33.4199 29.8332,33.4996 C28.8463,33.5808 27.5786,33.5821 25.76,33.5821 L24.9067,33.5821 C23.0881,33.5821 21.8204,33.5808 20.8335,33.4996 C19.8652,33.4199 19.3089,33.2713 18.8875,33.055 C17.9843,32.5914 17.25,31.8516 16.7898,30.9417 C16.5751,30.5172 16.4277,29.9567 16.3485,28.9812 C16.2679,27.9869 16.2667,26.7098 16.2667,24.8776 L16.2667,24.0179 C16.2667,22.1858 16.2679,20.9086 16.3485,19.9143 C16.4277,18.9388 16.5751,18.3784 16.7898,17.9538 C17.25,17.0439 17.9843,16.3041 18.8875,15.8405 C19.3089,15.6242 19.8652,15.4756 20.8335,15.3959 C21.8204,15.3147 23.0881,15.3134 24.9067,15.3134 Z"/></g></svg>