<?xml version="1.0" encoding="UTF-8"?>
<svg width="200px" height="246px" viewBox="0 0 200 246" version="1.1" xmlns="http://www.w3.org/2000/svg" xmlns:xlink="http://www.w3.org/1999/xlink">
    <title>selfie</title>
    <g id="Page-1" stroke="none" stroke-width="1" fill="none" fill-rule="evenodd">
        <g id="Artboard" transform="translate(-536.000000, -36.000000)">
            <g id="Group-3" transform="translate(536.000000, 36.000000)">
                <rect id="Rectangle" fill="#FFFFFF" x="0" y="0" width="200" height="246" rx="11"></rect>
                <g id="Group-2" transform="translate(36.000000, 45.000000)" fill="#4A61F2">
                    <g id="Group" opacity="0.0659645" transform="translate(12.600000, 0.000000)">
                        <path d="M101.22984,0.00684444444 L100.79982,0 L14.93982,0 L14.50998,0.00684444444 C6.79932,0.249333333 0.58932,6.996 0.36612,15.3730133 L0.35982,15.84 L0.35766,82.6384533 C4.35924,77.84832 9.35298,73.0552533 15.42852,68.0623289 L15.6942,67.8440889 L15.8733,66.5180267 C19.27836,42.1365511 27.93636,28.3710044 43.55748,22.4312 C59.9121,16.2123378 75.2247,19.47616 85.62114,31.8732089 L85.75236,32.0298489 L86.37246,32.2913067 C93.88458,35.6433244 97.55982,44.7980622 97.55982,56.8006756 C97.55982,64.7904889 96.17886,69.5067022 90.42462,78.0096533 L90.01332,78.60864 L89.32662,81.7535644 L89.13276,83.0299556 C88.59618,86.4011378 87.9039,89.5124267 87.05592,92.3618667 C84.56742,100.724213 80.7381,106.830436 75.57336,110.627342 C70.79112,113.142382 66.23982,114.4 61.91982,114.4 L62.72532,114.479396 C71.0505,115.299164 74.48112,115.636889 74.42496,118.263004 L74.4174,118.976 L74.41884,120.936444 L74.43486,122.615484 L74.44998,123.413547 L74.47068,124.203982 L74.4975,125.001458 L74.51694,125.480569 L74.56266,126.390098 C74.67966,128.43248 74.8656,129.897387 75.07008,130.365547 C75.36456,131.039627 75.9735,131.575253 76.99176,131.961867 L77.30964,132.073529 L77.274,132.20064 L78.0084,132.30272 C92.84364,134.467716 101.55114,141.919947 103.7538,154.555378 C110.25468,153.100444 115.17534,146.947093 115.3737,139.506987 L115.37982,139.04 L115.37982,15.84 L115.3737,15.3730133 C115.15032,6.996 108.9405,0.249333333 101.22984,0.00684444444 Z" id="Shape"></path>
                    </g>
                    <g id="Group" opacity="0.135951" transform="translate(0.000000, 18.800000)">
                        <path d="M28.47348,47.7180267 C31.87854,23.3365511 40.53654,9.57100444 56.15766,3.6312 C72.5121,-2.58746667 87.8247,0.67616 98.22132,13.0732089 L98.35254,13.2298489 L98.53506,13.3043556 L98.97264,13.4913067 C106.48476,16.84352 110.16,25.9980622 110.16,38.0006756 C110.16,46.2007111 108.70524,50.9527111 102.5613,59.8890133 C102.74418,58.4215644 102.76164,56.90464 102.77982,55.3476267 C102.79206,54.2947556 102.80448,53.2236978 102.86838,52.1366044 C102.88962,51.776 102.70566,51.4378844 102.40452,51.2841778 C97.44912,48.7546667 94.39434,44.2040889 92.33784,37.5254756 C91.9341,36.2142756 91.575,34.8508622 91.20852,33.2758578 L90.86562,31.7466133 L89.8857,27.2269333 L89.84016,27.0816356 C89.61786,26.5327111 88.93872,26.37216 88.5276,26.8178311 C74.7909,41.7191644 59.58126,51.4967467 39.09564,50.9268978 L37.8567,50.9268978 C37.1862,51.1732978 37.27854,51.3698311 38.05776,51.6520178 L45.49572,52.7500622 L45.49572,56.5903822 C46.60128,74.7858489 51.48162,86.7563911 60.12504,92.3713778 L60.22854,92.6668622 C61.1154,95.3326756 61.56,98.2877156 61.56,101.536676 L61.5537,104.061493 C61.54362,105.152498 61.5213,106.122649 61.47846,107.158507 C61.3701,109.787947 61.14564,111.696373 60.82812,112.423449 C60.41664,113.36544 59.27472,114.10992 57.33558,114.596267 C41.13288,116.368391 31.20516,124.134684 27.72684,137.845867 L26.73,137.843911 L26.3304,137.838044 C13.79358,137.413689 0,117.215147 0,98.2484089 C0,79.5433244 8.32662,65.4533511 28.0287,49.2625244 L28.2942,49.0440889 L28.47348,47.7180267 Z M80.99676,79.0219733 C80.62146,78.7573867 80.11998,78.8731556 79.87626,79.2808889 C78.20928,82.0710756 74.32902,83.1524978 68.13306,82.3739911 C67.68864,82.3180622 67.2867,82.6641956 67.2354,83.1470222 C67.18392,83.6298489 67.50252,84.0665244 67.94694,84.1222578 C70.67628,84.4652622 76.02156,84.1959822 77.7897,83.5455644 C79.55766,82.8951467 79.99542,82.3139556 81.23508,80.2391111 C81.4788,79.8315733 81.37206,79.28656 80.99676,79.0219733 Z" id="Shape"></path>
                    </g>
                </g>
            </g>
        </g>
    </g>
</svg>