<svg xmlns="http://www.w3.org/2000/svg" width="220" height="308" viewBox="0 0 220 308"><g fill="none" fill-rule="evenodd"><path fill="#FFF" fill-rule="nonzero" d="M0,12 C0,5.3726 5.3726,0 12,0 L208,0 C214.627,0 220,5.3726 220,12 L220,296 C220,302.627 214.627,308 208,308 L12,308 C5.3726,308 0,302.627 0,296 L0,12 Z"/><circle cx="116" cy="134" r="44" fill="#F3F5FF" fill-rule="nonzero"/><circle cx="110" cy="128" r="50" stroke="#E7EAFE" stroke-linecap="round" stroke-width="4"/><path stroke="#E7EAFE" stroke-linecap="round" stroke-width="4" d="M92.083 82.1667C92.083 82.1667 84.1665 103 84.1665 128 84.1665 153 92.083 173.417 92.083 173.417M128.333 82.1667C128.333 82.1667 136.25 103 136.25 128 136.25 153 128.333 173.417 128.333 173.417"/><line x1="110" x2="110" y1="78" y2="178" stroke="#E7EAFE" stroke-linecap="round" stroke-width="4"/><line x1="60" x2="160" y1="128" y2="128" stroke="#E7EAFE" stroke-linecap="round" stroke-width="4"/><line x1="67.916" x2="152.083" y1="103" y2="103" stroke="#E7EAFE" stroke-linecap="round" stroke-width="4"/><line x1="67.916" x2="152.083" y1="153" y2="153" stroke="#E7EAFE" stroke-linecap="round" stroke-width="4"/><rect width="104" height="12" x="58" y="32" fill="#E7EAFE" fill-rule="nonzero" rx="6"/><rect width="56" height="6" x="82" y="230" fill="#E7EAFE" fill-rule="nonzero" rx="2.7"/><rect width="72" height="6" x="74" y="212" fill="#E7EAFE" fill-rule="nonzero" rx="3"/></g></svg>