<svg xmlns="http://www.w3.org/2000/svg" width="260" height="160" viewBox="0 0 260 160"><g fill="none" fill-rule="evenodd"><path fill="#FFF" fill-rule="nonzero" d="M0,12 C0,5.3726 5.3726,0 12,0 L248,0 C254.627,0 260,5.3726 260,12 L260,148 C260,154.627 254.627,160 248,160 L12,160 C5.3726,160 0,154.627 0,148 L0,12 Z"/><path fill="#4A61F2" d="M0,2.7 C0,1.2088 1.2088,0 2.7,0 L7.2,0 C8.6912,0 9.9,1.2088 9.9,2.7 L9.9,42.3 C9.9,43.7912 8.6912,45 7.2,45 L2.7,45 C1.2088,45 0,43.7912 0,42.3 L0,2.7 Z M15.3,5.4 C15.3,2.4177 17.7177,0 20.7,0 L32.4,0 C35.3823,0 37.8,2.4177 37.8,5.4 L37.8,39.6 C37.8,42.5823 35.3823,45 32.4,45 L20.7,45 C17.7177,45 15.3,42.5823 15.3,39.6 L15.3,5.4 Z M90.9,0 C87.918,0 85.5,2.4177 85.5,5.4 L85.5,39.6 C85.5,42.5823 87.918,45 90.9,45 L102.6,45 C105.582,45 108,42.5823 108,39.6 L108,5.4 C108,2.4177 105.582,0 102.6,0 L90.9,0 Z M191.7,5.4 C191.7,2.4177 194.118,0 197.1,0 L208.8,0 C211.782,0 214.2,2.4177 214.2,5.4 L214.2,39.6 C214.2,42.5823 211.782,45 208.8,45 L197.1,45 C194.118,45 191.7,42.5823 191.7,39.6 L191.7,5.4 Z M45,0 C44.0059,0 43.2,0.8059 43.2,1.8 L43.2,43.2 C43.2,44.1941 44.0059,45 45,45 L47.7,45 C48.6941,45 49.5,44.1941 49.5,43.2 L49.5,1.8 C49.5,0.8059 48.6941,0 47.7,0 L45,0 Z M54.9,1.8 C54.9,0.8059 55.7059,0 56.7,0 L59.4,0 C60.3941,0 61.2,0.8059 61.2,1.8 L61.2,43.2 C61.2,44.1941 60.3941,45 59.4,45 L56.7,45 C55.7059,45 54.9,44.1941 54.9,43.2 L54.9,1.8 Z M162.9,0 C161.906,0 161.1,0.8059 161.1,1.8 L161.1,43.2 C161.1,44.1941 161.906,45 162.9,45 L165.6,45 C166.594,45 167.4,44.1941 167.4,43.2 L167.4,1.8 C167.4,0.8059 166.594,0 165.6,0 L162.9,0 Z M113.4,1.8 C113.4,0.8059 114.206,0 115.2,0 L117.9,0 C118.894,0 119.7,0.8059 119.7,1.8 L119.7,43.2 C119.7,44.1941 118.894,45 117.9,45 L115.2,45 C114.206,45 113.4,44.1941 113.4,43.2 L113.4,1.8 Z M143.1,0 C142.106,0 141.3,0.8059 141.3,1.8 L141.3,43.2 C141.3,44.1941 142.106,45 143.1,45 L145.8,45 C146.794,45 147.6,44.1941 147.6,43.2 L147.6,1.8 C147.6,0.8059 146.794,0 145.8,0 L143.1,0 Z M125.1,0.9 C125.1,0.4029 125.503,0 126,0 L126.9,0 C127.397,0 127.8,0.4029 127.8,0.9 L127.8,44.1 C127.8,44.5971 127.397,45 126.9,45 L126,45 C125.503,45 125.1,44.5971 125.1,44.1 L125.1,0.9 Z M153.9,0 C153.403,0 153,0.4029 153,0.9 L153,44.1 C153,44.5971 153.403,45 153.9,45 L154.8,45 C155.297,45 155.7,44.5971 155.7,44.1 L155.7,0.9 C155.7,0.4029 155.297,0 154.8,0 L153.9,0 Z M133.2,0.9 C133.2,0.4029 133.603,0 134.1,0 L135,0 C135.497,0 135.9,0.4029 135.9,0.9 L135.9,44.1 C135.9,44.5971 135.497,45 135,45 L134.1,45 C133.603,45 133.2,44.5971 133.2,44.1 L133.2,0.9 Z M70.2,0 C68.212,0 66.6,1.6118 66.6,3.6 L66.6,41.4 C66.6,43.3882 68.212,45 70.2,45 L76.5,45 C78.488,45 80.1,43.3882 80.1,41.4 L80.1,3.6 C80.1,1.6118 78.488,0 76.5,0 L70.2,0 Z M172.8,3.6 C172.8,1.6118 174.412,0 176.4,0 L182.7,0 C184.688,0 186.3,1.6118 186.3,3.6 L186.3,41.4 C186.3,43.3882 184.688,45 182.7,45 L176.4,45 C174.412,45 172.8,43.3882 172.8,41.4 L172.8,3.6 Z M3.6,63 C1.6118,63 0,64.6118 0,66.6 C0,68.5882 1.6118,70.2 3.6,70.2 L77.4,70.2 C79.388,70.2 81,68.5882 81,66.6 C81,64.6118 79.388,63 77.4,63 L3.6,63 Z" opacity=".07" transform="translate(23 23)"/></g></svg>