<svg xmlns="http://www.w3.org/2000/svg" width="30" height="40" viewBox="0 0 30 40"><g fill="none" fill-rule="evenodd"><rect width="28.5" height="38.5" x=".75" y=".75" stroke="#000" stroke-width="1.5" rx="3.25"/><line x1="6" x2="24" y1="23.5" y2="23.5" stroke="#000" stroke-linecap="round" stroke-width="1.5"/><line x1="6" x2="24" y1="18.5" y2="18.5" stroke="#000" stroke-linecap="round" stroke-width="1.5"/><line x1="6" x2="24" y1="28.5" y2="28.5" stroke="#000" stroke-linecap="round" stroke-width="1.5"/><path fill="#000" fill-rule="nonzero" d="M20.75,4 C20.75,3.58579 20.4142,3.25 20,3.25 C19.5858,3.25 19.25,3.58579 19.25,4 L20.75,4 Z M26,10.75 C26.4142,10.75 26.75,10.4142 26.75,10 C26.75,9.58579 26.4142,9.25 26,9.25 L26,10.75 Z M19.25,4 L19.25,8 L20.75,8 L20.75,4 L19.25,4 Z M22,10.75 L26,10.75 L26,9.25 L22,9.25 L22,10.75 Z M19.25,8 C19.25,9.51878 20.4812,10.75 22,10.75 L22,9.25 C21.3096,9.25 20.75,8.69036 20.75,8 L19.25,8 Z"/><line x1="6" x2="14" y1="33.5" y2="33.5" stroke="#000" stroke-linecap="round" stroke-width="1.5"/></g></svg>