<svg xmlns="http://www.w3.org/2000/svg" width="43" height="44" viewBox="0 0 43 44"><g fill-rule="evenodd"><path fill-rule="nonzero" d="M13 0C13.5128 0 13.9355.38604 13.9933.883379L14 1 14 4C14 4.55228 13.5523 5 13 5 12.4872 5 12.0645 4.61396 12.0067 4.11662L12 4 12 1C12 .447715 12.4477 0 13 0ZM21.7167 4.28331C22.0654 4.63199 22.0922 5.18066 21.7972 5.56011L21.7167 5.65123 19.6512 7.71669C19.2735 8.09444 18.661 8.09444 18.2833 7.71669 17.9346 7.36801 17.9078 6.81934 18.2028 6.43989L18.2833 6.34877 20.3488 4.28331C20.7265 3.90556 21.339 3.90556 21.7167 4.28331ZM4 12C4.55228 12 5 12.4477 5 13 5 13.5128 4.61396 13.9355 4.11662 13.9933L4 14 1 14C.447715 14 0 13.5523 0 13 0 12.4872.38604 12.0645.883379 12.0067L1 12 4 12ZM7.79772 19.5558C8.09194 19.1774 8.0652 18.6302 7.71748 18.2825 7.34078 17.9058 6.73004 17.9058 6.35334 18.2825L4.28252 20.3533 4.20228 20.4442C3.90806 20.8226 3.9348 21.3698 4.28252 21.7175 4.65922 22.0942 5.26996 22.0942 5.64666 21.7175L7.71748 19.6467 7.79772 19.5558ZM19.4642 18.136 19.5625 18.2032 19.6538 18.2837 21.7163 20.3462C22.0946 20.7245 22.0946 21.3379 21.7163 21.7163 21.367 22.0655 20.8175 22.0923 20.4375 21.7968L20.3462 21.7163 18.2837 19.6538C17.9054 19.2755 17.9054 18.6621 18.2837 18.2837 18.6039 17.9636 19.0923 17.9144 19.4642 18.136ZM13 21C13.5128 21 13.9355 21.386 13.9933 21.8834L14 22 14 25C14 25.5523 13.5523 26 13 26 12.4872 26 12.0645 25.614 12.0067 25.1166L12 25 12 22C12 21.4477 12.4477 21 13 21ZM25.1166 12.0067 25 12 22 12 21.8834 12.0067C21.386 12.0645 21 12.4872 21 13 21 13.5128 21.386 13.9355 21.8834 13.9933L22 14 25 14 25.1166 13.9933C25.614 13.9355 26 13.5128 26 13 26 12.4872 25.614 12.0645 25.1166 12.0067ZM5.55341 4.20197 5.45566 4.1352C5.08592 3.91487 4.60035 3.96383 4.28209 4.28209 3.90597 4.65821 3.90597 5.26802 4.28209 5.64414L6.35586 7.71791 6.44659 7.79803C6.82441 8.0918 7.37072 8.0651 7.71791 7.71791 8.09403 7.34179 8.09403 6.73198 7.71791 6.35586L5.64414 4.28209 5.55341 4.20197Z"/><path d="M19,13 C19,16.3137 16.3137,19 13,19 C9.68629,19 7,16.3137 7,13 C7,9.68629 9.68629,7 13,7 C16.3137,7 19,9.68629 19,13 Z M17.5,13 C17.5,15.4853 15.4853,17.5 13,17.5 C10.5147,17.5 8.5,15.4853 8.5,13 C8.5,10.5147 10.5147,8.5 13,8.5 C15.4853,8.5 17.5,10.5147 17.5,13 Z"/><path fill-rule="nonzero" d="M30.9635 9.79253C31.0781 9.39448 31.4936 9.16469 31.8917 9.27928L38.8325 11.2774C39.8656 11.555 40.8426 12.0625 41.5684 12.8512 42.3066 13.6536 42.7500396 14.7107 42.7500396 16L42.7500396 35.083C42.7505 35.8097 42.751 36.5806 42.433 37.2816 42.0821 38.055 41.4091 38.634 40.3354 39.1708 38.9215 39.8778 33.3006 41.9797 29.9388 43.2207 28.1439 43.8833 26.25 42.5512 26.25 40.6446L26.25 23C26.25 22.5858 26.5858 22.25 27 22.25 27.4142 22.25 27.75 22.5858 27.75 23L27.75 40.6446C27.75 41.5139 28.6101 42.1123 29.4193 41.8135 32.8386 40.5513 38.3465 38.4883 39.6646 37.8292 40.5909 37.3661 40.9179 36.9907 41.067 36.6619 41.2369 36.2874 41.25 35.8405 41.25 35L41.25 16C41.25 15.0801 40.9434 14.3873 40.4645 13.8669 39.9748 13.3347 39.2704 12.9474 38.4377 12.7245L38.4241 12.7209 31.4767 10.7207C31.0787 10.6062 30.8489 10.1906 30.9635 9.79253ZM13.75 30C13.75 29.5858 13.4142 29.25 13 29.25 12.5858 29.25 12.25 29.5858 12.25 30L12.25 35C12.25 37.4974 13.9783 39.75 16.3684 39.75L23 39.75C23.4142 39.75 23.75 39.4142 23.75 39 23.75 38.5858 23.4142 38.25 23 38.25L16.3684 38.25C15.0379 38.25 13.75 36.9209 13.75 35L13.75 30Z"/></g></svg>