<svg xmlns="http://www.w3.org/2000/svg" width="45" height="39" viewBox="0 0 45 39"><g fill-rule="evenodd"><path d="M8.29935 5.04654C7.73975 4.94744 7.76812 4.06438 8.38447 4.04478 8.39139 4.04456 8.39839 4.04445 8.40546 4.04445L8.59959 4.0392C8.80238 4.02821 9.00075 4.00012 9.19324 3.95634 9.40713 3.9077 9.61377 3.83968 9.81117 3.75424 10.6353 3.39754 11.2982 2.73712 11.6553 1.91443 11.7411 1.71673 11.8093 1.50965 11.8577 1.29517 11.9017 1.10073 11.9294.900189 11.9395.695025L11.9445.493167C11.9608-.172494 12.9555-.160301 12.9555.50556L12.9555.517957C12.9557.585789 12.9579.653185 12.9619.720092L12.9635.745438C12.976.932425 13.0031 1.11553 13.0436 1.29361 13.0925 1.50847 13.1609 1.71601 13.2469 1.91421 13.6039 2.73693 14.2638 3.39876 15.0855 3.75541 15.2832 3.84122 15.4902 3.90937 15.7047 3.95783 15.8992 4.00178 16.0997 4.02955 16.3049 4.03965L16.5067 4.0446C17.1724 4.06092 17.1602 5.05555 16.4943 5.05555L16.4819 5.05558C16.4141 5.05581 16.3467 5.05796 16.2798 5.06196L16.2545 5.06357C16.0675 5.07611 15.8844 5.1032 15.7063 5.14372 15.4914 5.1926 15.2839 5.26102 15.0857 5.34702 14.2631 5.70396 13.6013 6.36366 13.2446 7.18522 13.1588 7.38298 13.0906 7.59012 13.0421 7.80468 12.9981 7.99917 12.9704 8.19976 12.9603 8.40497L12.9555 8.58028 12.9439 8.7115C12.8381 9.23632 12.046 9.22661 11.9532 8.69936L11.9443 8.59444 11.9441 8.55261 11.9434 8.50996 11.9429 8.49083C11.9418 8.45273 11.9401 8.41478 11.9378 8.37699L11.9363 8.35456C11.9238 8.16721 11.8967 7.98385 11.8561 7.80561 11.8072 7.59093 11.7388 7.38368 11.6529 7.18581 11.2954 6.36275 10.6341 5.70216 9.81063 5.34551 9.61354 5.26015 9.40716 5.1922 9.19342 5.1436 9.01856 5.10384 8.83877 5.07702 8.65512 5.06423L8.62724 5.06239C8.56288 5.05841 8.49804 5.05615 8.43279 5.05566L8.40546 5.05555 8.29935 5.04654ZM12.4487 5.58685C12.1553 5.19304 11.8057 4.84356 11.4118 4.55026 11.8064 4.25709 12.1568 3.90764 12.4508 3.51359 12.7437 3.90747 13.0928 4.25729 13.4863 4.55088 13.0923 4.84393 12.7424 5.19315 12.4487 5.58685ZM17.246 10.8891C16.8058 10.9031 16.7855 11.5339 17.1852 11.6047L17.261 11.6111 17.2805 11.6112C17.3271 11.6115 17.3735 11.6132 17.4194 11.616L17.4393 11.6173C17.5431 11.6245 17.6452 11.638 17.7452 11.6574 17.8867 11.6849 18.024 11.7241 18.156 11.7741 18.8312 12.0298 19.3684 12.5664 19.6248 13.2413 19.6751 13.3737 19.7146 13.5113 19.7422 13.6532 19.7622 13.7559 19.7759 13.8608 19.7831 13.9675L19.7841 13.9836C19.7857 14.0106 19.7869 14.0377 19.7877 14.0649L19.7881 14.0785 19.7886 14.109 19.7888 14.1389 19.7951 14.2138C19.8614 14.5904 20.4272 14.5974 20.5027 14.2225L20.511 14.1288 20.5144 14.0036C20.5203 13.8842 20.5346 13.767 20.5566 13.6526 20.5839 13.5107 20.6233 13.3731 20.6735 13.2408 20.9291 12.5671 21.4669 12.0312 22.1413 11.7751 22.2741 11.7247 22.4122 11.6852 22.5545 11.6575 22.6568 11.6377 22.7612 11.624 22.8674 11.6168L22.8855 11.6157C22.9333 11.6128 22.9815 11.6113 23.0299 11.6111L23.0388 11.6111C23.5144 11.6111 23.5231 10.9007 23.0476 10.889L22.9035 10.8855C22.7844 10.8796 22.6675 10.8654 22.5534 10.8435 22.4113 10.8161 22.2735 10.7768 22.141 10.7265 21.4671 10.471 20.9311 9.93315 20.675 9.25859 20.6246 9.12581 20.5851 8.98772 20.5574 8.84544 20.5376 8.74314 20.5239 8.63867 20.5167 8.53246L20.5156 8.51435C20.5127 8.46656 20.5112 8.41842 20.511 8.36997L20.511 8.36111C20.511 7.8855 19.8006 7.87679 19.7889 8.35226L19.7854 8.49645C19.7795 8.61549 19.7653 8.73236 19.7434 8.84649 19.716 8.98858 19.6767 9.12642 19.6264 9.25893 19.3706 9.9335 18.8319 10.47 18.1563 10.7257 18.0241 10.7758 17.8867 10.815 17.7451 10.8425 17.6324 10.8644 17.5171 10.8788 17.3997 10.8851L17.261 10.8889 17.246 10.8891ZM19.2865 11.2501C19.6214 11.4854 19.9136 11.7775 20.149 12.1124 20.3846 11.7776 20.6771 11.4858 21.0121 11.2507 20.6774 11.0152 20.3857 10.7228 20.1506 10.3879 19.9148 10.7229 19.6219 11.015 19.2865 11.2501ZM.51358 14.6884C-.205913 14.561-.169433 13.4256.623019 13.4004.631917 13.4002.640911 13.4.65 13.4L.899601 13.3933C.981941 13.3888 1.06372 13.3822 1.14486 13.3734 1.32269 13.3541 1.4975 13.3246 1.66869 13.2854 3.36185 12.898 4.70047 11.5663 5.08655 9.87447 5.12585 9.70224 5.15528 9.52628 5.17421 9.3472 5.18308 9.26333 5.18964 9.17879 5.19383 9.09362L5.2002 8.83408C5.22118 7.97823 6.49999987 7.99391 6.49999987 8.85002L6.50003 8.86596C6.50033 8.95317 6.50309 9.03982 6.50824 9.12585L6.51031 9.15843C6.51453 9.22135 6.52003 9.28392 6.52679 9.34613 6.54621 9.52501 6.57602 9.70084 6.61559 9.87301 7.00429 11.5641 8.33516 12.9008 10.0255 13.2866 10.1978 13.3259 10.3737 13.3553 10.5528 13.3742 10.6367 13.3831 10.7212 13.3897 10.8064 13.3938L11.0659 13.4002C11.9218 13.4212 11.9061 14.7 11.05 14.7L11.0341 14.7C10.9468 14.7003 10.8602 14.7031 10.7742 14.7083L10.7416 14.7103C10.6787 14.7145 10.6161 14.72 10.5539 14.7268 10.375 14.7462 10.1992 14.776 10.027 14.8156 8.33603 15.2043 6.99943 16.535 6.61355 18.2251 6.57418 18.3976 6.54471 18.5738 6.52576 18.7531 6.51691 18.8369 6.51036 18.9213 6.50617 19.0064L6.49999987 19.2318 6.4851 19.4005C6.34917 20.0753 5.33075 20.0628 5.21141 19.3849L5.2 19.25C5.2 19.2321 5.1999 19.2141 5.19969 19.1962 5.19948 19.1779 5.19916 19.1597 5.19873 19.1414L5.19809 19.1168C5.19668 19.0678 5.1945 19.019 5.19155 18.9704L5.18971 18.9416C5.1855 18.8787 5.18002 18.8162 5.17328 18.7541 5.15387 18.575 5.12406 18.399 5.08447 18.2267 4.69541 16.5338 3.3619 15.2016 1.66831 14.8144 1.49738 14.7753 1.32279 14.7459 1.14514 14.7266 1.08741 14.7204 1.02935 14.7152.970997 14.7112L.93515 14.7088C.85239 14.7037.769032 14.7008.685133 14.7002L.65 14.7.51358 14.6884ZM5.84833 16.1531C5.33275 15.2895 4.60807 14.5652 3.74421 14.05 4.60894 13.5352 5.33536 12.8113 5.85159 11.9472 6.36634 12.8106 7.08973 13.5359 7.95289 14.0516 7.0894 14.5664 6.364 15.2898 5.84833 16.1531Z"/><path fill-rule="nonzero" d="M26.8999,10.25 C26.4857,10.25 26.1499,10.5858 26.1499,11 C26.1499,11.4142 26.4857,11.75 26.8999,11.75 L39.8999,11.75 C41.6948,11.75 43.1499,13.2051 43.1499,15 L43.1499,34 C43.1499,35.7949 41.6948,37.25 39.8999,37.25 L9.8999,37.25 C8.10498,37.25 6.6499,35.7949 6.6499,34 L6.6499,24 C6.6499,23.5858 6.31412,23.25 5.8999,23.25 C5.48569,23.25 5.1499,23.5858 5.1499,24 L5.1499,34 C5.1499,36.6234 7.27655,38.75 9.8999,38.75 L39.8999,38.75 C42.5233,38.75 44.6499,36.6234 44.6499,34 L44.6499,15 C44.6499,12.3766 42.5233,10.25 39.8999,10.25 L26.8999,10.25 Z"/><path d="M17.8999,17.25 C15.8288,17.25 14.1499,18.9289 14.1499,21 C14.1499,23.0711 15.8288,24.75 17.8999,24.75 C19.971,24.75 21.6499,23.0711 21.6499,21 C21.6499,18.9289 19.971,17.25 17.8999,17.25 Z M15.6499,21 C15.6499,19.7574 16.6573,18.75 17.8999,18.75 C19.1425,18.75 20.1499,19.7574 20.1499,21 C20.1499,22.2426 19.1425,23.25 17.8999,23.25 C16.6573,23.25 15.6499,22.2426 15.6499,21 Z"/><path fill-rule="nonzero" d="M11.8176 28.3034C12.711 26.9878 14.549 26.25 17.9001 26.25 21.2512 26.25 23.0892 26.9878 23.9826 28.3034 24.4191 28.9462 24.5715 29.6492 24.624 30.2848 24.6601 30.7209 24.6503 31.1867 24.6421 31.5807 24.6389 31.7332 24.6359 31.8749 24.6359 32 24.6359 32.4142 24.3002 32.75 23.8859 32.75 23.4717 32.75 23.1359 32.4142 23.1359 32 23.1359 31.8103 23.1398 31.6317 23.1435 31.4589 23.1513 31.0989 23.1586 30.7641 23.1291 30.4084 23.0882 29.9127 22.9786 29.4949 22.7417 29.1461 22.2884 28.4785 21.1334 27.75 17.9001 27.75 14.6668 27.75 13.5119 28.4785 13.0585 29.1461 12.8216 29.4949 12.7121 29.9127 12.6711 30.4084 12.6417 30.7641 12.6489 31.0986 12.6567 31.4587 12.6604 31.6314 12.6643 31.8103 12.6643 32 12.6643 32.4142 12.3285 32.75 11.9143 32.75 11.5001 32.75 11.1643 32.4142 11.1643 32 11.1643 31.8749 11.1613 31.7332 11.1581 31.5808 11.1499 31.1868 11.1401 30.7209 11.1762 30.2848 11.2287 29.6492 11.3811 28.9462 11.8176 28.3034ZM28.6499 21C28.2357 21 27.8999 21.3358 27.8999 21.75 27.8999 22.1642 28.2357 22.5 28.6499 22.5L38.1499 22.5C38.5641 22.5 38.8999 22.1642 38.8999 21.75 38.8999 21.3358 38.5641 21 38.1499 21L28.6499 21ZM27.8999 26.75C27.8999 26.3358 28.2357 26 28.6499 26L36.1499 26C36.5641 26 36.8999 26.3358 36.8999 26.75 36.8999 27.1642 36.5641 27.5 36.1499 27.5L28.6499 27.5C28.2357 27.5 27.8999 27.1642 27.8999 26.75Z"/></g></svg>