<svg xmlns="http://www.w3.org/2000/svg" width="52" height="42" viewBox="0 0 52 42"><g fill-rule="evenodd"><path fill-rule="nonzero" d="M26.1018,0.0068242 L26.0058,0 L25.9248,0.00369588 C25.8754,0.00860953 25.8275,0.0183046 25.7818,0.0322524 L25.6782,0.0722827 L25.5888,0.12255 C25.5467,0.150228 25.5067,0.182594 25.4697,0.219647 L22.9697,2.71965 L22.8971,2.80377 C22.6792,3.09738 22.7034,3.51404 22.9697,3.78031 L23.0538,3.85293 C23.3474,4.07078 23.7641,4.04657 24.0303,3.78031 L25.25,2.55998 L25.25,6.74998 L25.2568,6.85175 C25.3065,7.21782 25.6203,7.49998 26,7.49998 C26.4142,7.49998 26.75,7.16419 26.75,6.74998 L26.75,2.56098 L27.9697,3.78031 L28.0538,3.85293 C28.3474,4.07078 28.7641,4.04657 29.0303,3.78031 C29.3232,3.48741 29.3232,3.01254 29.0303,2.71965 L26.5303,0.219647 L26.4583,0.15625 L26.3597,0.0916126 L26.2908,0.05843 L26.1849,0.0229498 L26.1018,0.0068242 Z"/><path d="M11.25,13.75 C11.25,11.6789 12.9289,10 15,10 L37,10 C39.0711,10 40.75,11.6789 40.75,13.75 L40.75,27.75 C40.75,29.8211 39.0711,31.5 37,31.5 L15,31.5 C12.9289,31.5 11.25,29.8211 11.25,27.75 L11.25,13.75 Z M15,11.5 C13.7574,11.5 12.75,12.5074 12.75,13.75 L12.75,27.75 C12.75,28.9926 13.7574,30 15,30 L37,30 C38.2426,30 39.25,28.9926 39.25,27.75 L39.25,13.75 C39.25,12.5074 38.2426,11.5 37,11.5 L15,11.5 Z"/><path fill-rule="nonzero" d="M4.03033 17.7197C4.2966 17.9859 4.3208 18.4026 4.10295 18.6962L4.03033 18.7803 2.81 20 8 20C8.41421 20 8.74999981 20.3358 8.74999981 20.75 8.74999981 21.1297 8.46785 21.4435 8.10177 21.4932L8 21.5 2.81 21.5 4.03033 22.7197C4.2966 22.9859 4.3208 23.4026 4.10295 23.6962L4.03033 23.7803C3.76406 24.0466 3.3474 24.0708 3.05379 23.8529L2.96967 23.7803.46967 21.2803C.203403 21.0141.179197 20.5974.397052 20.3038L.46967 20.2197 2.96967 17.7197C3.26256 17.4268 3.73744 17.4268 4.03033 17.7197ZM26 34C26.3797 34 26.6935 34.2822 26.7432 34.6482L26.75 34.75 26.749 38.939 27.9697 37.7197C28.2359 37.4534 28.6526 37.4292 28.9462 37.6471L29.0303 37.7197C29.2966 37.9859 29.3208 38.4026 29.1029 38.6962L29.0303 38.7803 26.5303 41.2803C26.4933 41.3174 26.4533 41.3498 26.4112 41.3774L26.3218 41.4277 26.2182 41.4677C26.1497 41.4886 26.0762 41.5 26 41.5L25.9429 41.4979 25.8521 41.4854 25.8151 41.477 25.7092 41.4415 25.6403 41.4084 25.5538 41.3529C25.5206 41.3278 25.4943 41.3049 25.4697 41.2803L22.9697 38.7803C22.6768 38.4874 22.6768 38.0126 22.9697 37.7197 23.2359 37.4534 23.6526 37.4292 23.9462 37.6471L24.0303 37.7197 25.249 38.938 25.25 34.75C25.25 34.3358 25.5858 34 26 34ZM49.0303 17.7197 48.9462 17.6471C48.6526 17.4292 48.2359 17.4534 47.9697 17.7197L47.8971 17.8038C47.6792 18.0974 47.7034 18.5141 47.9697 18.7803L49.188 20 44 20 43.8982 20.0068C43.5322 20.0565 43.25 20.3703 43.25 20.75 43.25 21.1642 43.5858 21.5 44 21.5L49.188 21.5 47.9697 22.7197 47.8971 22.8038C47.6792 23.0974 47.7034 23.5141 47.9697 23.7803 48.2626 24.0732 48.7374 24.0732 49.0303 23.7803L51.5303 21.2803 51.6029 21.1962C51.8208 20.9026 51.7966 20.4859 51.5303 20.2197L49.0303 17.7197Z"/></g></svg>