<svg xmlns="http://www.w3.org/2000/svg" width="260" height="160" viewBox="0 0 260 160"><g fill="none" fill-rule="evenodd"><path fill="#FFF" fill-rule="nonzero" d="M0,12 C0,5.3726 5.3726,0 12,0 L248,0 C254.627,0 260,5.3726 260,12 L260,148 C260,154.627 254.627,160 248,160 L12,160 C5.3726,160 0,154.627 0,148 L0,12 Z"/><path fill="#4A61F2" d="M56.2388,0.0035 L55.9999,0 L8.2999,0 L8.0611,0.0035 C3.7774,0.1275 0.3274,3.5775 0.2034,7.8612 L0.1999,8.1 L0.1987,42.2583 C2.4218,39.8088 5.1961,37.3578 8.5714,34.8046 L8.719,34.693 L8.8185,34.0149 C10.7102,21.5471 15.5202,14.5079 24.1986,11.4705 C33.2845,8.2904 41.7915,9.9594 47.5673,16.2988 L47.6402,16.3789 L47.9847,16.5126 C52.1581,18.2267 54.1999,22.9081 54.1999,29.0458 C54.1999,33.1315 53.4327,35.5432 50.2359,39.8913 L50.0074,40.1976 L49.6259,41.8058 L49.5182,42.4585 C49.2201,44.1824 48.8355,45.7734 48.3644,47.2305 C46.9819,51.5067 44.8545,54.6292 41.9852,56.5708 C39.3284,57.8569 36.7999,58.5 34.3999,58.5 L34.8474,58.5406 C39.4725,58.9598 41.3784,59.1325 41.3472,60.4754 L41.343,60.84 L41.3438,61.8425 L41.3527,62.7011 L41.3611,63.1092 L41.3726,63.5134 L41.3875,63.9212 L41.3983,64.1662 L41.4237,64.6313 C41.4887,65.6757 41.592,66.4248 41.7056,66.6642 C41.8692,67.0089 42.2075,67.2828 42.7732,67.4805 L42.9498,67.5376 L42.93,67.6026 L43.338,67.6548 C51.5798,68.7619 56.4173,72.5727 57.641,79.034 C61.2526,78.29 63.9863,75.1434 64.0965,71.3388 L64.0999,71.1 L64.0999,8.1 L64.0965,7.8612 C63.9724,3.5775 60.5225,0.1275 56.2388,0.0035 Z M82.1,7.2 C80.112,7.2 78.5,8.8118 78.5,10.8 C78.5,12.7882 80.112,14.4 82.1,14.4 L163.1,14.4 C165.088,14.4 166.7,12.7882 166.7,10.8 C166.7,8.8118 165.088,7.2 163.1,7.2 L82.1,7.2 Z M78.5,30.6 C78.5,29.6059 79.306,28.8 80.3,28.8 L134.3,28.8 C135.294,28.8 136.1,29.6059 136.1,30.6 C136.1,31.5941 135.294,32.4 134.3,32.4 L80.3,32.4 C79.306,32.4 78.5,31.5941 78.5,30.6 Z M80.3,43.2 C79.306,43.2 78.5,44.0059 78.5,45 C78.5,45.9941 79.306,46.8 80.3,46.8 L148.7,46.8 C149.694,46.8 150.5,45.9941 150.5,45 C150.5,44.0059 149.694,43.2 148.7,43.2 L80.3,43.2 Z" opacity=".066" transform="translate(19 16)"/><path fill="#4A61F2" d="M70,0 L70,114 L8.5,114 C3.088,103.32 0,90.981 0,78.189 C0,37.8946 30.963,4.6687 70,0 Z" opacity=".066" transform="translate(190 46)"/><path fill="#4A61F2" d="M92.731,0 C118.642,0 142.808,10.234 160,27 L160,73 L0,73 C10.114,31.17 47.794,0 92.731,0 Z" opacity=".066" transform="translate(100 87)"/><path fill="#4A61F2" d="M15.8186,25.0149 C17.7103,12.5471 22.5203,5.5079 31.1987,2.4705 C40.2845,-0.7095 48.7915,0.9594 54.5674,7.2988 L54.6403,7.3789 L54.7417,7.417 L54.9848,7.5126 C59.1582,9.2268 61.2,13.9081 61.2,20.0458 C61.2,24.239 60.3918,26.669 56.9785,31.2387 C57.0801,30.4883 57.0898,29.7126 57.0999,28.9164 C57.1067,28.378 57.1136,27.8303 57.1491,27.2744 C57.1609,27.09 57.0587,26.9171 56.8914,26.8385 C54.1384,25.545 52.4413,23.218 51.2988,19.8028 C51.0745,19.1323 50.875,18.4351 50.6714,17.6297 L50.4809,16.8477 L49.9365,14.5365 L49.9112,14.4622 C49.7877,14.1815 49.4104,14.0994 49.182,14.3273 C41.5505,21.9473 33.1007,26.9472 21.7198,26.6558 L21.0315,26.6558 C20.659,26.7818 20.7103,26.8823 21.1432,27.0266 L25.2754,27.5881 L25.2754,29.5519 C25.8896,38.8564 28.6009,44.9777 33.4028,47.849 L33.4603,48.0001 C33.953,49.3633 34.2,50.8744 34.2,52.5358 L34.1965,53.8269 C34.1909,54.3848 34.1785,54.8809 34.1547,55.4106 C34.0945,56.7552 33.9698,57.7311 33.7934,58.1029 C33.5648,58.5846 32.9304,58.9653 31.8531,59.214 C22.8516,60.1202 17.3362,64.0916 15.4038,71.103 L14.85,71.102 L14.628,71.099 C7.6631,70.882 0,60.5532 0,50.8543 C0,41.2892 4.6259,34.0841 15.5715,25.8047 L15.719,25.693 L15.8186,25.0149 Z M44.9982,41.0226 C44.7897,40.8873 44.5111,40.9465 44.3757,41.155 C43.4496,42.5818 41.2939,43.1348 37.8517,42.7367 C37.6048,42.7081 37.3815,42.8851 37.353,43.132 C37.3244,43.3789 37.5014,43.6022 37.7483,43.6307 C39.2646,43.8061 42.2342,43.6684 43.2165,43.3358 C44.1987,43.0032 44.4419,42.706 45.1306,41.645 C45.266,41.4366 45.2067,41.1579 44.9982,41.0226 Z" opacity=".136" transform="translate(12 25)"/></g></svg>